{
  "accessors": [
    {
      "bufferView": 2,
      "componentType": 5126,
      "count": 1819,
      "max": [
        36.71120071411133,
        95.0,
        11.22819995880127
      ],
      "min": [
        -36.71120071411133,
        -95.0,
        -11.22819995880127
      ],
      "type": "VEC3"
    },
    {
      "bufferView": 2,
      "byteOffset": 21828,
      "componentType": 5126,
      "count": 1819,
      "max": [
        0.999825119972229,
        0.9999879002571106,
        0.9996545910835266
      ],
      "min": [
        -0.9999980926513672,
        -0.9992961883544922,
        -0.9995419383049011
      ],
      "type": "VEC3"
    },
    {
      "bufferView": 3,
      "componentType": 5126,
      "count": 1819,
      "max": [
        0.9999719858169556,
        0.9997053146362305,
        0.999931275844574,
        1.0
      ],
      "min": [
        -1.0,
        -1.0,
        -0.9994425773620605,
        -1.0
      ],
      "type": "VEC4"
    },
    {
      "bufferView": 1,
      "componentType": 5126,
      "count": 1819,
      "max": [
        0.9982979893684387,
        0.9930220246315002
      ],
      "min": [
        0.001702000037766993,
        0.001702000037766993
      ],
      "type": "VEC2"
    },
    {
      "bufferView": 1,
      "byteOffset": 14552,
      "componentType": 5126,
      "count": 1819,
      "max": [
        0.9982979893684387,
        0.9930220246315002
      ],
      "min": [
        0.001702000037766993,
        0.001702000037766993
      ],
      "type": "VEC2"
    },
    {
      "bufferView": 1,
      "byteOffset": 29104,
      "componentType": 5126,
      "count": 1819,
      "max": [
        0.9982979893684387,
        0.9930220246315002
      ],
      "min": [
        0.001702000037766993,
        0.001702000037766993
      ],
      "type": "VEC2"
    },
    {
      "bufferView": 0,
      "componentType": 5125,
      "count": 6951,
      "type": "SCALAR"
    }
  ],
  "asset": {
    "extras": {
      "author": "FrieDev (https://sketchfab.com/FrieDev)",
      "license": "CC-BY-4.0 (http://creativecommons.org/licenses/by/4.0/)",
      "source": "https://sketchfab.com/3d-models/antique-old-key-d3e520bcda634cbf95c34ca03391d0a0",
      "title": "Antique old Key"
    },
    "generator": "Sketchfab-16.95.0",
    "version": "2.0"
  },
  "bufferViews": [
    {
      "buffer": 0,
      "byteLength": 27804,
      "name": "floatBufferViews",
      "target": 34963
    },
    {
      "buffer": 0,
      "byteLength": 43656,
      "byteOffset": 27804,
      "byteStride": 8,
      "name": "floatBufferViews",
      "target": 34962
    },
    {
      "buffer": 0,
      "byteLength": 43656,
      "byteOffset": 71460,
      "byteStride": 12,
      "name": "floatBufferViews",
      "target": 34962
    },
    {
      "buffer": 0,
      "byteLength": 29104,
      "byteOffset": 115116,
      "byteStride": 16,
      "name": "floatBufferViews",
      "target": 34962
    }
  ],
  "buffers": [
    {
      "byteLength": 144220,
      "uri": "scene.bin"
    }
  ],
  "images": [
    {
      "uri": "textures/Material.002_baseColor.png"
    },
    {
      "uri": "textures/Material.002_metallicRoughness.png"
    },
    {
      "uri": "textures/Material.002_normal.png"
    }
  ],
  "materials": [
    {
      "doubleSided": true,
      "name": "Material.002",
      "normalTexture": {
        "index": 2
      },
      "pbrMetallicRoughness": {
        "baseColorTexture": {
          "index": 0
        },
        "metallicRoughnessTexture": {
          "index": 1
        }
      }
    }
  ],
  "meshes": [
    {
      "name": "material_Material.002_0",
      "primitives": [
        {
          "attributes": {
            "NORMAL": 1,
            "POSITION": 0,
            "TANGENT": 2,
            "TEXCOORD_0": 3,
            "TEXCOORD_1": 4,
            "TEXCOORD_2": 5
          },
          "indices": 6,
          "material": 0,
          "mode": 4
        }
      ]
    }
  ],
  "nodes": [
    {
      "children": [
        1
      ],
      "matrix": [
        1.0,
        0.0,
        0.0,
        0.0,
        0.0,
        2.220446049250313e-16,
        -1.0,
        0.0,
        0.0,
        1.0,
        2.220446049250313e-16,
        0.0,
        0.0,
        0.0,
        0.0,
        1.0
      ],
      "name": "Sketchfab_model"
    },
    {
      "children": [
        2
      ],
      "matrix": [
        0.009999999776482582,
        0.0,
        0.0,
        0.0,
        0.0,
        0.0,
        0.009999999776482582,
        0.0,
        0.0,
        -0.009999999776482582,
        0.0,
        0.0,
        0.0,
        0.0,
        0.0,
        1.0
      ],
      "name": "362878528bb2448eb0344fc826f0dd4d.fbx"
    },
    {
      "children": [
        3
      ],
      "name": "RootNode"
    },
    {
      "children": [
        4
      ],
      "matrix": [
        1.0,
        0.0,
        0.0,
        0.0,
        0.0,
        -4.371139006309477e-08,
        0.999999999999999,
        0.0,
        0.0,
        -0.999999999999999,
        -4.371139006309477e-08,
        0.0,
        0.0,
        0.0,
        0.0,
        1.0
      ],
      "name": "material"
    },
    {
      "mesh": 0,
      "name": "material_Material.002_0"
    }
  ],
  "samplers": [
    {
      "magFilter": 9729,
      "minFilter": 9987,
      "wrapS": 10497,
      "wrapT": 10497
    }
  ],
  "scene": 0,
  "scenes": [
    {
      "name": "Sketchfab_Scene",
      "nodes": [
        0
      ]
    }
  ],
  "textures": [
    {
      "sampler": 0,
      "source": 0
    },
    {
      "sampler": 0,
      "source": 1
    },
    {
      "sampler": 0,
      "source": 2
    }
  ]
}
