{
  "accessors": [
    {
      "bufferView": 3,
      "componentType": 5126,
      "count": 57859,
      "max": [
        0.2530197203159332,
        1.7974917888641357,
        0.5647364258766174
      ],
      "min": [
        -0.25269073247909546,
        -0.16103395819664001,
        -0.5649153590202332
      ],
      "type": "VEC3"
    },
    {
      "bufferView": 3,
      "byteOffset": 694308,
      "componentType": 5126,
      "count": 57859,
      "max": [
        1.0,
        0.9996902942657471,
        0.9999688863754272
      ],
      "min": [
        -0.9999696016311646,
        -0.9999690055847168,
        -0.9999378323554993
      ],
      "type": "VEC3"
    },
    {
      "bufferView": 4,
      "componentType": 5126,
      "count": 57859,
      "max": [
        0.9999788999557495,
        0.9999999403953552,
        0.9999668598175049,
        1.0
      ],
      "min": [
        -0.9998728632926941,
        -1.0,
        -0.9999983906745911,
        -1.0
      ],
      "type": "VEC4"
    },
    {
      "bufferView": 2,
      "componentType": 5126,
      "count": 57859,
      "max": [
        1.0,
        1.0
      ],
      "min": [
        0.0,
        0.001221001148223877
      ],
      "type": "VEC2"
    },
    {
      "bufferView": 1,
      "componentType": 5125,
      "count": 297591,
      "type": "SCALAR"
    },
    {
      "bufferView": 5,
      "componentType": 5126,
      "count": 34,
      "max": [
        2.6703882217407227,
        1.2691322565078735,
        2.6748390197753906,
        0.0,
        1.03584623336792,
        2.6748392581939697,
        2.6673402786254883,
        0.0,
        2.6469953060150146,
        2.667412757873535,
        2.6689510345458984,
        0.0,
        0.7750573754310608,
        3.46988844871521,
        3.7338790893554688,
        1.0
      ],
      "min": [
        -2.673625946044922,
        -1.2469310760498047,
        -0.8495389223098755,
        0.0,
        -1.0596193075180054,
        -2.6372952461242676,
        -2.4879798889160156,
        0.0,
        -2.6748390197753906,
        -2.5082502365112305,
        -2.6624739170074463,
        0.0,
        -0.8151512145996094,
        -4.804683208465576,
        -0.7147486805915833,
        1.0
      ],
      "type": "MAT4"
    },
    {
      "bufferView": 0,
      "componentType": 5123,
      "count": 57859,
      "type": "VEC4"
    },
    {
      "bufferView": 4,
      "byteOffset": 925744,
      "componentType": 5126,
      "count": 57859,
      "max": [
        1.0,
        0.49997255206108093,
        0.33149290084838867,
        0.20415735244750977
      ],
      "min": [
        0.29042813181877136,
        0.0,
        0.0,
        0.0
      ],
      "type": "VEC4"
    }
  ],
  "asset": {
    "extras": {
      "author": "PurplePoint (https://sketchfab.com/Purple_Point)",
      "license": "CC-BY-4.0 (http://creativecommons.org/licenses/by/4.0/)",
      "source": "https://sketchfab.com/3d-models/creeping-shadow-creature-free-horror-3d-model-53e77576ca0b4c5988ba2991a4bff075",
      "title": "Creeping Shadow Creature – Free Horror 3D Model"
    },
    "generator": "Sketchfab-16.95.0",
    "version": "2.0"
  },
  "bufferViews": [
    {
      "buffer": 0,
      "byteLength": 462872,
      "byteStride": 8,
      "name": "shortBufferViews",
      "target": 34962
    },
    {
      "buffer": 0,
      "byteLength": 1190364,
      "byteOffset": 462872,
      "name": "floatBufferViews",
      "target": 34963
    },
    {
      "buffer": 0,
      "byteLength": 462872,
      "byteOffset": 1653236,
      "byteStride": 8,
      "name": "floatBufferViews",
      "target": 34962
    },
    {
      "buffer": 0,
      "byteLength": 1388616,
      "byteOffset": 2116108,
      "byteStride": 12,
      "name": "floatBufferViews",
      "target": 34962
    },
    {
      "buffer": 0,
      "byteLength": 1851488,
      "byteOffset": 3504724,
      "byteStride": 16,
      "name": "floatBufferViews",
      "target": 34962
    },
    {
      "buffer": 0,
      "byteLength": 2176,
      "byteOffset": 5356212,
      "name": "floatBufferViews"
    }
  ],
  "buffers": [
    {
      "byteLength": 5358388,
      "uri": "scene.bin"
    }
  ],
  "extensionsRequired": [
    "KHR_materials_pbrSpecularGlossiness"
  ],
  "extensionsUsed": [
    "KHR_materials_pbrSpecularGlossiness"
  ],
  "images": [
    {
      "uri": "textures/tripo_material_a4ec221e-1096-4caf-9a67-d287b2acbddd_diffuse.jpeg"
    },
    {
      "uri": "textures/tripo_material_a4ec221e-1096-4caf-9a67-d287b2acbddd_specularGlossiness.png"
    },
    {
      "uri": "textures/tripo_material_a4ec221e-1096-4caf-9a67-d287b2acbddd_normal.jpeg"
    }
  ],
  "materials": [
    {
      "doubleSided": true,
      "extensions": {
        "KHR_materials_pbrSpecularGlossiness": {
          "diffuseFactor": [
            1.0,
            1.0,
            1.0,
            1.0
          ],
          "diffuseTexture": {
            "index": 0
          },
          "glossinessFactor": 1.0,
          "specularFactor": [
            1.0,
            1.0,
            1.0
          ],
          "specularGlossinessTexture": {
            "index": 1
          }
        }
      },
      "name": "tripo_material_a4ec221e-1096-4caf-9a67-d287b2acbddd",
      "normalTexture": {
        "index": 2
      }
    }
  ],
  "meshes": [
    {
      "name": "Object_0",
      "primitives": [
        {
          "attributes": {
            "JOINTS_0": 6,
            "NORMAL": 1,
            "POSITION": 0,
            "TANGENT": 2,
            "TEXCOORD_0": 3,
            "TEXCOORD_1": 3,
            "TEXCOORD_2": 3,
            "TEXCOORD_3": 3,
            "WEIGHTS_0": 7
          },
          "indices": 4,
          "material": 0,
          "mode": 4
        }
      ]
    }
  ],
  "nodes": [
    {
      "children": [
        1
      ],
      "matrix": [
        1.0,
        0.0,
        0.0,
        0.0,
        0.0,
        2.220446049250313e-16,
        -1.0,
        0.0,
        0.0,
        1.0,
        2.220446049250313e-16,
        0.0,
        0.0,
        0.0,
        0.0,
        1.0
      ],
      "name": "Sketchfab_model"
    },
    {
      "children": [
        2
      ],
      "name": "root"
    },
    {
      "children": [
        3
      ],
      "matrix": [
        1.0,
        0.0,
        0.0,
        0.0,
        0.0,
        2.220446049250313e-16,
        1.0,
        0.0,
        0.0,
        -1.0,
        2.220446049250313e-16,
        0.0,
        0.0,
        0.0,
        0.0,
        1.0
      ],
      "name": "GLTF_SceneRootNode"
    },
    {
      "children": [
        4
      ],
      "matrix": [
        0.37385427951812744,
        0.0,
        0.0,
        0.0,
        0.0,
        -1.2605423954830184e-07,
        0.3738542795181061,
        0.0,
        0.0,
        -0.3738542795181061,
        -1.2605423954830184e-07,
        0.0,
        0.0,
        0.0,
        0.0,
        1.0
      ],
      "name": "Armature_35"
    },
    {
      "children": [
        5,
        7,
        6
      ],
      "name": "GLTF_created_0"
    },
    {
      "children": [
        8
      ],
      "name": "GLTF_created_0_rootJoint"
    },
    {
      "name": "tripo_node_a4ec221e-1096-4caf-9a67-d287b2acbddd.001_34"
    },
    {
      "mesh": 0,
      "name": "Object_7",
      "skin": 0
    },
    {
      "children": [
        9,
        31,
        36
      ],
      "name": "mixamorig:Hips_33",
      "rotation": [
        -0.5,
        0.5,
        -0.5,
        0.5
      ],
      "scale": [
        1.0,
        0.9999999403953552,
        1.0
      ],
      "translation": [
        0.04133213683962822,
        0.014079730026423931,
        -2.832838535308838
      ]
    },
    {
      "children": [
        10
      ],
      "name": "mixamorig:Spine_22",
      "rotation": [
        -0.05977592244744301,
        -3.114193075303925e-15,
        -2.612885463548764e-09,
        0.9982118010520935
      ],
      "translation": [
        3.359904132693714e-09,
        0.23250961303710938,
        -0.02794693037867546
      ]
    },
    {
      "children": [
        11
      ],
      "name": "mixamorig:Spine1_21",
      "rotation": [
        6.891787052154541e-08,
        6.661338147750939e-15,
        -1.7763568394002505e-15,
        1.0
      ],
      "scale": [
        1.0,
        0.9999999403953552,
        1.0
      ],
      "translation": [
        -2.89095414274243e-09,
        0.2732134163379669,
        6.298822796679815e-08
      ]
    },
    {
      "children": [
        12,
        15,
        23
      ],
      "name": "mixamorig:Spine2_20",
      "rotation": [
        -9.126961941774425e-08,
        1.624691492452257e-10,
        -2.7130804269859254e-09,
        1.0
      ],
      "scale": [
        1.0,
        0.9999999403953552,
        1.0
      ],
      "translation": [
        -2.674871435459636e-09,
        0.31224381923675537,
        -4.131990394284912e-08
      ]
    },
    {
      "children": [
        13
      ],
      "name": "mixamorig:Neck_3",
      "rotation": [
        0.05977596342563629,
        -3.114193075303925e-15,
        5.33082245013361e-09,
        0.9982118010520935
      ],
      "scale": [
        1.0,
        0.9999999403953552,
        1.0
      ],
      "translation": [
        1.7007644181887827e-09,
        0.35127386450767517,
        6.670893526461441e-08
      ]
    },
    {
      "children": [
        14
      ],
      "name": "mixamorig:Head_2",
      "rotation": [
        8.264928047297655e-24,
        1.7763568394002505e-15,
        3.552713678800501e-15,
        1.0
      ],
      "translation": [
        -2.7402848878921304e-09,
        0.24447393417358398,
        0.06945056468248367
      ]
    },
    {
      "name": "mixamorig:HeadTop_End_1",
      "rotation": [
        2.200231766937863e-22,
        1.7763568394002505e-15,
        3.552713678800501e-15,
        1.0
      ],
      "translation": [
        -5.277003722881091e-09,
        0.5648231506347656,
        0.16045619547367096
      ]
    },
    {
      "children": [
        16
      ],
      "name": "mixamorig:LeftShoulder_11",
      "rotation": [
        0.5654609799385071,
        0.4146285355091095,
        -0.5936635136604309,
        0.3948427736759186
      ],
      "scale": [
        0.9999997615814209,
        0.9999997615814209,
        0.9999998211860657
      ],
      "translation": [
        0.18709096312522888,
        0.28300634026527405,
        -0.009093555621802807
      ]
    },
    {
      "children": [
        17
      ],
      "name": "mixamorig:LeftArm_10",
      "rotation": [
        0.44664692878723145,
        0.07089215517044067,
        -0.03552974388003349,
        0.8911893367767334
      ],
      "scale": [
        1.0,
        1.0000001192092896,
        1.0000001192092896
      ],
      "translation": [
        -1.0617077350616455e-07,
        0.40627944469451904,
        -7.515773177146912e-07
      ]
    },
    {
      "children": [
        18
      ],
      "name": "mixamorig:LeftForeArm_9",
      "rotation": [
        0.011138241738080978,
        0.0002948978799395263,
        0.02650398388504982,
        0.9995866417884827
      ],
      "scale": [
        0.9999999403953552,
        1.0,
        0.9999997615814209
      ],
      "translation": [
        -7.916241884231567e-09,
        0.9442285895347595,
        1.1152587831020355e-07
      ]
    },
    {
      "children": [
        19
      ],
      "name": "mixamorig:LeftHand_8",
      "rotation": [
        -0.028794677928090096,
        -0.005846882704645395,
        0.19893603026866913,
        0.9795719385147095
      ],
      "translation": [
        3.725290298461914e-09,
        1.0777966976165771,
        -5.0873495638370514e-08
      ]
    },
    {
      "children": [
        20
      ],
      "name": "mixamorig:LeftHandIndex1_7",
      "rotation": [
        0.13467781245708466,
        -0.015768328681588173,
        -0.11514720320701599,
        0.9840499758720398
      ],
      "scale": [
        1.0,
        1.0000001192092896,
        1.0
      ],
      "translation": [
        1.4901161193847656e-08,
        0.5990259647369385,
        -1.7462298274040222e-09
      ]
    },
    {
      "children": [
        21
      ],
      "name": "mixamorig:LeftHandIndex2_6",
      "rotation": [
        1.0069925338029861e-06,
        1.0271789506077766e-05,
        -1.6618287190794945e-07,
        1.0
      ],
      "scale": [
        0.9999998807907104,
        1.0,
        1.0
      ],
      "translation": [
        7.450580596923828e-08,
        0.20901478826999664,
        -6.51925802230835e-08
      ]
    },
    {
      "children": [
        22
      ],
      "name": "mixamorig:LeftHandIndex3_5",
      "rotation": [
        -1.4994292030223733e-07,
        -2.538785111028119e-06,
        2.0093281705158006e-07,
        1.0
      ],
      "scale": [
        1.0000001192092896,
        1.0000001192092896,
        1.0000001192092896
      ],
      "translation": [
        0.06643151491880417,
        0.1803325116634369,
        0.022163160145282745
      ]
    },
    {
      "name": "mixamorig:LeftHandIndex4_4",
      "rotation": [
        -3.958120942115784e-09,
        2.6309864509244107e-08,
        -2.9103830456733704e-08,
        1.0
      ],
      "scale": [
        0.9999999403953552,
        1.0,
        1.0
      ],
      "translation": [
        0.07163100689649582,
        0.17228785157203674,
        0.13424468040466309
      ]
    },
    {
      "children": [
        24
      ],
      "name": "mixamorig:RightShoulder_19",
      "rotation": [
        0.5684247612953186,
        -0.41250568628311157,
        0.5912643671035767,
        0.3964073359966278
      ],
      "scale": [
        1.0000001192092896,
        0.9999999403953552,
        1.0
      ],
      "translation": [
        -0.18709097802639008,
        0.2827959656715393,
        -0.007342671509832144
      ]
    },
    {
      "children": [
        25
      ],
      "name": "mixamorig:RightArm_18",
      "rotation": [
        0.4465459883213043,
        -0.08176956325769424,
        0.041023626923561096,
        0.8900716304779053
      ],
      "scale": [
        1.0,
        1.0,
        0.9999999403953552
      ],
      "translation": [
        1.0058283805847168e-07,
        0.4062797427177429,
        -1.3783574104309082e-07
      ]
    },
    {
      "children": [
        26
      ],
      "name": "mixamorig:RightForeArm_17",
      "rotation": [
        0.007983468472957611,
        -0.0007240096456371248,
        -0.09030899405479431,
        0.9958815574645996
      ],
      "scale": [
        0.9999998211860657,
        1.0,
        1.0
      ],
      "translation": [
        1.1175870895385742e-08,
        0.9447911977767944,
        -2.7939677238464355e-09
      ]
    },
    {
      "children": [
        27
      ],
      "name": "mixamorig:RightHand_16",
      "rotation": [
        -0.01121787540614605,
        0.0005495657096616924,
        -0.04895040765404701,
        0.9987381100654602
      ],
      "scale": [
        0.9999999403953552,
        1.0000001192092896,
        0.9999998807907104
      ],
      "translation": [
        -1.0244548320770264e-07,
        1.087558388710022,
        2.499145921319723e-07
      ]
    },
    {
      "children": [
        28
      ],
      "name": "mixamorig:RightHandIndex1_15",
      "rotation": [
        0.11573608964681625,
        0.0036158228758722544,
        0.031006857752799988,
        0.9927893280982971
      ],
      "scale": [
        1.0,
        1.0000001192092896,
        1.0000001192092896
      ],
      "translation": [
        -4.470348358154297e-08,
        0.5807746052742004,
        -6.798654794692993e-08
      ]
    },
    {
      "children": [
        29
      ],
      "name": "mixamorig:RightHandIndex2_14",
      "rotation": [
        -2.970919581457565e-07,
        1.9257427084085066e-06,
        -2.2817406630792902e-08,
        1.0
      ],
      "scale": [
        0.9999999403953552,
        0.9999997615814209,
        0.9999998211860657
      ],
      "translation": [
        3.725290298461914e-08,
        0.11455769836902618,
        6.798654794692993e-08
      ]
    },
    {
      "children": [
        30
      ],
      "name": "mixamorig:RightHandIndex3_13",
      "rotation": [
        3.16882534434626e-07,
        -3.1730162390886107e-06,
        -2.2118911147117615e-09,
        1.0
      ],
      "scale": [
        1.0,
        0.9999999403953552,
        0.9999998807907104
      ],
      "translation": [
        -0.04553484916687012,
        0.1452902853488922,
        0.04675881937146187
      ]
    },
    {
      "name": "mixamorig:RightHandIndex4_12",
      "rotation": [
        -1.3969840839678227e-09,
        1.327134810935604e-07,
        2.7939681679356454e-09,
        1.0
      ],
      "scale": [
        0.9999999403953552,
        0.9999998807907104,
        0.9999999403953552
      ],
      "translation": [
        -0.07293188571929932,
        0.1190817654132843,
        0.07591936737298965
      ]
    },
    {
      "children": [
        32
      ],
      "name": "mixamorig:LeftUpLeg_27",
      "rotation": [
        -0.009905314072966576,
        -0.13694368302822113,
        -0.9879483580589294,
        0.07145871222019196
      ],
      "scale": [
        1.0000004768371582,
        1.000000238418579,
        1.0000016689300537
      ],
      "translation": [
        0.4203266501426697,
        -0.14395862817764282,
        -0.058615438640117645
      ]
    },
    {
      "children": [
        33
      ],
      "name": "mixamorig:LeftLeg_26",
      "rotation": [
        -0.32367467880249023,
        -0.10864405333995819,
        -0.037443384528160095,
        0.9391641020774841
      ],
      "scale": [
        1.0,
        1.0,
        0.9999999403953552
      ],
      "translation": [
        3.4458935260772705e-08,
        1.397475242614746,
        9.397302846991806e-08
      ]
    },
    {
      "children": [
        34
      ],
      "name": "mixamorig:LeftFoot_25",
      "rotation": [
        0.5297670960426331,
        -0.19778694212436676,
        0.12861832976341248,
        0.8146683573722839
      ],
      "scale": [
        1.0000001192092896,
        1.0,
        1.0
      ],
      "translation": [
        -1.1915108188986778e-07,
        1.4475470781326294,
        -2.514570951461792e-08
      ]
    },
    {
      "children": [
        35
      ],
      "name": "mixamorig:LeftToeBase_24",
      "rotation": [
        0.3373219072818756,
        -0.34200718998908997,
        0.13307717442512512,
        0.8669114708900452
      ],
      "scale": [
        0.9999998807907104,
        1.0,
        0.9999998807907104
      ],
      "translation": [
        -4.470348358154297e-08,
        0.6551768183708191,
        5.21540641784668e-08
      ]
    },
    {
      "name": "mixamorig:LeftToe_End_23",
      "rotation": [
        -1.626904122531414e-08,
        3.7532299757003784e-07,
        2.224842461373555e-07,
        1.0
      ],
      "scale": [
        1.0,
        0.9999999403953552,
        1.0
      ],
      "translation": [
        -1.4901161193847656e-08,
        0.3966235816478729,
        -2.2351741790771484e-08
      ]
    },
    {
      "children": [
        37
      ],
      "name": "mixamorig:RightUpLeg_32",
      "rotation": [
        -0.00734925689175725,
        0.0997999757528305,
        0.992293119430542,
        0.07307764142751694
      ],
      "scale": [
        0.9999985098838806,
        0.9999997615814209,
        0.9999974966049194
      ],
      "translation": [
        -0.4203266501426697,
        -0.14395849406719208,
        -0.021160036325454712
      ]
    },
    {
      "children": [
        38
      ],
      "name": "mixamorig:RightLeg_31",
      "rotation": [
        -0.34307077527046204,
        0.10020680725574493,
        0.03683793917298317,
        0.9332224130630493
      ],
      "scale": [
        0.9999999403953552,
        1.0,
        1.0
      ],
      "translation": [
        -6.426125764846802e-08,
        1.3727973699569702,
        1.4435840967053082e-08
      ]
    },
    {
      "children": [
        39
      ],
      "name": "mixamorig:RightFoot_30",
      "rotation": [
        0.43109142780303955,
        0.3312148451805115,
        -0.17389187216758728,
        0.8211081027984619
      ],
      "scale": [
        0.9999999403953552,
        1.0000001192092896,
        1.0
      ],
      "translation": [
        1.932494342327118e-08,
        1.5267221927642822,
        1.3504177331924438e-08
      ]
    },
    {
      "children": [
        40
      ],
      "name": "mixamorig:RightToeBase_29",
      "rotation": [
        0.36786529421806335,
        0.3139200508594513,
        -0.13349613547325134,
        0.8650480508804321
      ],
      "scale": [
        0.9999999403953552,
        0.9999997615814209,
        0.9999998211860657
      ],
      "translation": [
        -5.960464477539063e-08,
        0.5797238349914551,
        7.450580596923828e-09
      ]
    },
    {
      "name": "mixamorig:RightToe_End_28",
      "rotation": [
        -1.7229467630386353e-08,
        4.5888742761235335e-07,
        -1.28420585276956e-09,
        1.0
      ],
      "scale": [
        0.9999999403953552,
        1.0000001192092896,
        0.9999999403953552
      ],
      "translation": [
        5.960464477539063e-08,
        0.37218666076660156,
        -6.51925802230835e-08
      ]
    }
  ],
  "samplers": [
    {
      "magFilter": 9729,
      "minFilter": 9987,
      "wrapS": 10497,
      "wrapT": 10497
    }
  ],
  "scene": 0,
  "scenes": [
    {
      "name": "Sketchfab_Scene",
      "nodes": [
        0
      ]
    }
  ],
  "skins": [
    {
      "inverseBindMatrices": 5,
      "joints": [
        5,
        8,
        9,
        10,
        11,
        12,
        13,
        14,
        15,
        16,
        17,
        18,
        19,
        20,
        21,
        22,
        23,
        24,
        25,
        26,
        27,
        28,
        29,
        30,
        31,
        32,
        33,
        34,
        35,
        36,
        37,
        38,
        39,
        40
      ],
      "skeleton": 5
    }
  ],
  "textures": [
    {
      "sampler": 0,
      "source": 0
    },
    {
      "sampler": 0,
      "source": 1
    },
    {
      "sampler": 0,
      "source": 2
    }
  ]
}
