{
  "accessors": [
    {
      "bufferView": 2,
      "componentType": 5126,
      "count": 17545,
      "max": [
        0.4087594151496887,
        0.499746710062027,
        0.49977219104766846
      ],
      "min": [
        -0.40700146555900574,
        -0.5011259317398071,
        -0.5004047751426697
      ],
      "type": "VEC3"
    },
    {
      "bufferView": 2,
      "byteOffset": 210540,
      "componentType": 5126,
      "count": 17545,
      "max": [
        0.9996833205223083,
        0.9998461604118347,
        0.9998220205307007
      ],
      "min": [
        -0.9996468424797058,
        -0.9999411702156067,
        -0.9998441934585571
      ],
      "type": "VEC3"
    },
    {
      "bufferView": 1,
      "componentType": 5126,
      "count": 17545,
      "max": [
        0.9995802044868469,
        0.9995840191841125
      ],
      "min": [
        0.0004198152746539563,
        0.00041598081588745117
      ],
      "type": "VEC2"
    },
    {
      "bufferView": 0,
      "componentType": 5125,
      "count": 60798,
      "type": "SCALAR"
    }
  ],
  "asset": {
    "extras": {
      "author": "SkellyCooks (https://sketchfab.com/kalebiscoolio78)",
      "license": "CC-BY-4.0 (http://creativecommons.org/licenses/by/4.0/)",
      "source": "https://sketchfab.com/3d-models/void-stalker-0758ec59a17144248f43a7ac6fcab559",
      "title": "Void Stalker"
    },
    "generator": "Sketchfab-16.59.0",
    "version": "2.0"
  },
  "bufferViews": [
    {
      "buffer": 0,
      "byteLength": 243192,
      "name": "floatBufferViews",
      "target": 34963
    },
    {
      "buffer": 0,
      "byteLength": 140360,
      "byteOffset": 243192,
      "byteStride": 8,
      "name": "floatBufferViews",
      "target": 34962
    },
    {
      "buffer": 0,
      "byteLength": 421080,
      "byteOffset": 383552,
      "byteStride": 12,
      "name": "floatBufferViews",
      "target": 34962
    }
  ],
  "buffers": [
    {
      "byteLength": 804632,
      "uri": "scene.bin"
    }
  ],
  "images": [
    {
      "uri": "textures/Material_0.007_baseColor.png"
    }
  ],
  "materials": [
    {
      "name": "Material_0.007",
      "pbrMetallicRoughness": {
        "baseColorFactor": [
          0.4,
          0.4,
          0.4,
          1.0
        ],
        "baseColorTexture": {
          "index": 0
        },
        "roughnessFactor": 0.903602
      }
    }
  ],
  "meshes": [
    {
      "name": "Object_0",
      "primitives": [
        {
          "attributes": {
            "NORMAL": 1,
            "POSITION": 0,
            "TEXCOORD_0": 2
          },
          "indices": 3,
          "material": 0,
          "mode": 4
        }
      ]
    }
  ],
  "nodes": [
    {
      "children": [
        1
      ],
      "matrix": [
        1.0,
        0.0,
        0.0,
        0.0,
        0.0,
        2.220446049250313e-16,
        -1.0,
        0.0,
        0.0,
        1.0,
        2.220446049250313e-16,
        0.0,
        0.0,
        0.0,
        0.0,
        1.0
      ],
      "name": "Sketchfab_model"
    },
    {
      "children": [
        2
      ],
      "name": "root"
    },
    {
      "children": [
        3
      ],
      "matrix": [
        1.0,
        0.0,
        0.0,
        0.0,
        0.0,
        2.220446049250313e-16,
        1.0,
        0.0,
        0.0,
        -1.0,
        2.220446049250313e-16,
        0.0,
        0.0,
        0.0,
        0.0,
        1.0
      ],
      "name": "GLTF_SceneRootNode"
    },
    {
      "children": [
        4
      ],
      "name": "world.002_3"
    },
    {
      "children": [
        5
      ],
      "name": "geometry_0_2"
    },
    {
      "mesh": 0,
      "name": "Object_5"
    }
  ],
  "samplers": [
    {
      "magFilter": 9729,
      "minFilter": 9987,
      "wrapS": 10497,
      "wrapT": 10497
    }
  ],
  "scene": 0,
  "scenes": [
    {
      "name": "Sketchfab_Scene",
      "nodes": [
        0
      ]
    }
  ],
  "textures": [
    {
      "sampler": 0,
      "source": 0
    }
  ]
}
