{
  "accessors": [
    {
      "bufferView": 2,
      "componentType": 5126,
      "count": 14826,
      "max": [
        68.70600128173828,
        18.36349105834961,
        77.67694091796875
      ],
      "min": [
        -68.70600128173828,
        -22.565454483032227,
        -91.2596664428711
      ],
      "type": "VEC3"
    },
    {
      "bufferView": 2,
      "byteOffset": 177912,
      "componentType": 5126,
      "count": 14826,
      "max": [
        0.9999083280563354,
        0.9999567866325378,
        1.0
      ],
      "min": [
        -1.0,
        -1.0,
        -1.0
      ],
      "type": "VEC3"
    },
    {
      "bufferView": 3,
      "componentType": 5126,
      "count": 14826,
      "max": [
        0.999991774559021,
        1.0,
        0.9999926686286926,
        1.0
      ],
      "min": [
        -0.9999994039535522,
        -0.9993525147438049,
        -0.9999732375144958,
        -1.0
      ],
      "type": "VEC4"
    },
    {
      "bufferView": 1,
      "componentType": 5126,
      "count": 14826,
      "max": [
        0.9979754686355591,
        0.9958650469779968
      ],
      "min": [
        0.004152663517743349,
        0.0037529158871620893
      ],
      "type": "VEC2"
    },
    {
      "bufferView": 1,
      "byteOffset": 118608,
      "componentType": 5126,
      "count": 14826,
      "max": [
        0.9979754686355591,
        0.9958650469779968
      ],
      "min": [
        0.004152663517743349,
        0.0037529158871620893
      ],
      "type": "VEC2"
    },
    {
      "bufferView": 1,
      "byteOffset": 237216,
      "componentType": 5126,
      "count": 14826,
      "max": [
        0.9979754686355591,
        0.9958650469779968
      ],
      "min": [
        0.004152663517743349,
        0.0037529158871620893
      ],
      "type": "VEC2"
    },
    {
      "bufferView": 0,
      "componentType": 5125,
      "count": 49716,
      "type": "SCALAR"
    }
  ],
  "asset": {
    "extras": {
      "author": "leunamanuelgc (https://sketchfab.com/leunamanuelgc)",
      "license": "CC-BY-4.0 (http://creativecommons.org/licenses/by/4.0/)",
      "source": "https://sketchfab.com/3d-models/the-fifth-knight-gas-mask-character-b3011820639340c5812cdae329bc7a8f",
      "title": "The Fifth Knight - Gas Mask Character"
    },
    "generator": "Sketchfab-16.28.0",
    "version": "2.0"
  },
  "bufferViews": [
    {
      "buffer": 0,
      "byteLength": 198864,
      "name": "floatBufferViews",
      "target": 34963
    },
    {
      "buffer": 0,
      "byteLength": 355824,
      "byteOffset": 198864,
      "byteStride": 8,
      "name": "floatBufferViews",
      "target": 34962
    },
    {
      "buffer": 0,
      "byteLength": 355824,
      "byteOffset": 554688,
      "byteStride": 12,
      "name": "floatBufferViews",
      "target": 34962
    },
    {
      "buffer": 0,
      "byteLength": 237216,
      "byteOffset": 910512,
      "byteStride": 16,
      "name": "floatBufferViews",
      "target": 34962
    }
  ],
  "buffers": [
    {
      "byteLength": 1147728,
      "uri": "scene.bin"
    }
  ],
  "images": [
    {
      "uri": "textures/UPPER_PART_baseColor.png"
    },
    {
      "uri": "textures/UPPER_PART_metallicRoughness.png"
    },
    {
      "uri": "textures/UPPER_PART_normal.png"
    }
  ],
  "materials": [
    {
      "doubleSided": true,
      "name": "UPPER_PART",
      "normalTexture": {
        "index": 2
      },
      "occlusionTexture": {
        "index": 1
      },
      "pbrMetallicRoughness": {
        "baseColorTexture": {
          "index": 0
        },
        "metallicRoughnessTexture": {
          "index": 1
        }
      }
    }
  ],
  "meshes": [
    {
      "name": "UPPER_PART_UPPER PART_0",
      "primitives": [
        {
          "attributes": {
            "NORMAL": 1,
            "POSITION": 0,
            "TANGENT": 2,
            "TEXCOORD_0": 3,
            "TEXCOORD_1": 4,
            "TEXCOORD_2": 5
          },
          "indices": 6,
          "material": 0,
          "mode": 4
        }
      ]
    }
  ],
  "nodes": [
    {
      "children": [
        1
      ],
      "matrix": [
        1.0,
        0.0,
        0.0,
        0.0,
        0.0,
        2.220446049250313e-16,
        -1.0,
        0.0,
        0.0,
        1.0,
        2.220446049250313e-16,
        0.0,
        0.0,
        0.0,
        0.0,
        1.0
      ],
      "name": "Sketchfab_model"
    },
    {
      "children": [
        2
      ],
      "matrix": [
        1.0,
        0.0,
        0.0,
        0.0,
        0.0,
        0.0,
        1.0,
        0.0,
        0.0,
        -1.0,
        0.0,
        0.0,
        0.0,
        0.0,
        0.0,
        1.0
      ],
      "name": "282f0797c0654c2599c0866b0e0dab6d.fbx"
    },
    {
      "children": [
        3
      ],
      "name": "RootNode"
    },
    {
      "children": [
        4
      ],
      "matrix": [
        1.0,
        0.0,
        0.0,
        0.0,
        0.0,
        2.220446049250313e-16,
        -1.0,
        0.0,
        0.0,
        1.0,
        2.220446049250313e-16,
        0.0,
        0.0,
        91.07103729248047,
        1.0120110971456597e-08,
        1.0
      ],
      "name": "UPPER_PART"
    },
    {
      "mesh": 0,
      "name": "UPPER_PART_UPPER PART_0"
    }
  ],
  "samplers": [
    {
      "magFilter": 9729,
      "minFilter": 9987,
      "wrapS": 10497,
      "wrapT": 10497
    }
  ],
  "scene": 0,
  "scenes": [
    {
      "name": "Sketchfab_Scene",
      "nodes": [
        0
      ]
    }
  ],
  "textures": [
    {
      "sampler": 0,
      "source": 0
    },
    {
      "sampler": 0,
      "source": 1
    },
    {
      "sampler": 0,
      "source": 2
    }
  ]
}
