{
  "accessors": [
    {
      "bufferView": 3,
      "componentType": 5126,
      "count": 65532,
      "max": [
        5.373802661895752,
        12.700439453125,
        1.6532049179077148
      ],
      "min": [
        -6.600329875946045,
        -9.008676528930664,
        -5.031968593597412
      ],
      "type": "VEC3"
    },
    {
      "bufferView": 3,
      "byteOffset": 786384,
      "componentType": 5126,
      "count": 65532,
      "max": [
        0.9999905824661255,
        0.99994957447052,
        0.9999992847442627
      ],
      "min": [
        -1.0,
        -0.9999110698699951,
        -0.9999990463256836
      ],
      "type": "VEC3"
    },
    {
      "bufferView": 2,
      "componentType": 5126,
      "count": 65532,
      "max": [
        0.9970105886459351,
        0.9967571496963501
      ],
      "min": [
        0.0016394106205552816,
        0.0016394106205552816
      ],
      "type": "VEC2"
    },
    {
      "bufferView": 1,
      "componentType": 5125,
      "count": 343929,
      "type": "SCALAR"
    },
    {
      "bufferView": 3,
      "byteOffset": 1572768,
      "componentType": 5126,
      "count": 29556,
      "max": [
        5.070356369018555,
        12.29626178741455,
        2.685713768005371
      ],
      "min": [
        -6.308296203613281,
        -19.428895950317383,
        -5.2391462326049805
      ],
      "type": "VEC3"
    },
    {
      "bufferView": 3,
      "byteOffset": 1927440,
      "componentType": 5126,
      "count": 29556,
      "max": [
        0.9999970197677612,
        0.9998496770858765,
        0.9999997615814209
      ],
      "min": [
        -0.9999934434890747,
        -0.9999856948852539,
        -0.9999964237213135
      ],
      "type": "VEC3"
    },
    {
      "bufferView": 2,
      "byteOffset": 524256,
      "componentType": 5126,
      "count": 29556,
      "max": [
        0.9983606934547424,
        0.9910720586776733
      ],
      "min": [
        0.0016394106205552816,
        0.0016394106205552816
      ],
      "type": "VEC2"
    },
    {
      "bufferView": 1,
      "byteOffset": 1375716,
      "componentType": 5125,
      "count": 144519,
      "type": "SCALAR"
    },
    {
      "bufferView": 3,
      "byteOffset": 2282112,
      "componentType": 5126,
      "count": 1468,
      "max": [
        0.6963222026824951,
        11.527656555175781,
        -4.231757164001465
      ],
      "min": [
        -0.8257993459701538,
        10.951586723327637,
        -4.807958126068115
      ],
      "type": "VEC3"
    },
    {
      "bufferView": 3,
      "byteOffset": 2299728,
      "componentType": 5126,
      "count": 1468,
      "max": [
        0.9998177289962769,
        0.9987929463386536,
        0.9989843964576721
      ],
      "min": [
        -0.9998177289962769,
        -0.9987918734550476,
        -0.9989843964576721
      ],
      "type": "VEC3"
    },
    {
      "bufferView": 2,
      "byteOffset": 760704,
      "componentType": 5126,
      "count": 1468,
      "max": [
        0.9901884198188782,
        0.9995713233947754
      ],
      "min": [
        0.00042865760042332113,
        0.00042865760042332113
      ],
      "type": "VEC2"
    },
    {
      "bufferView": 1,
      "byteOffset": 1953792,
      "componentType": 5125,
      "count": 5760,
      "type": "SCALAR"
    },
    {
      "bufferView": 5,
      "componentType": 5126,
      "count": 21,
      "max": [
        100.0,
        0.9327961206436157,
        0.3604046404361725,
        0.0,
        0.3419611155986786,
        100.0,
        0.9610891342163086,
        0.0,
        0.9999999403953552,
        0.9610888361930847,
        99.99999237060547,
        0.0,
        6.483156204223633,
        10.216178894042969,
        1.1829675436019897,
        1.0
      ],
      "min": [
        -1.0,
        -0.8846827745437622,
        -0.46619364619255066,
        0.0,
        -0.4768292009830475,
        -1.0000007152557373,
        -0.1787414699792862,
        0.0,
        -0.9999999403953552,
        -0.9322746992111206,
        -1.0000001192092896,
        0.0,
        -5.415624618530273,
        -5.674427509307861,
        -9.83911418914795,
        1.0
      ],
      "type": "MAT4"
    },
    {
      "bufferView": 0,
      "componentType": 5123,
      "count": 65532,
      "type": "VEC4"
    },
    {
      "bufferView": 4,
      "componentType": 5126,
      "count": 65532,
      "max": [
        1.0,
        0.49999815225601196,
        0.3273920714855194,
        0.19652852416038513
      ],
      "min": [
        0.2901574969291687,
        0.0,
        0.0,
        0.0
      ],
      "type": "VEC4"
    },
    {
      "bufferView": 0,
      "byteOffset": 524256,
      "componentType": 5123,
      "count": 29556,
      "type": "VEC4"
    },
    {
      "bufferView": 4,
      "byteOffset": 1048512,
      "componentType": 5126,
      "count": 29556,
      "max": [
        1.0,
        0.4999310076236725,
        0.2313803881406784,
        0.1725122630596161
      ],
      "min": [
        0.34359845519065857,
        0.0,
        0.0,
        0.0
      ],
      "type": "VEC4"
    },
    {
      "bufferView": 0,
      "byteOffset": 760704,
      "componentType": 5123,
      "count": 1468,
      "type": "VEC4"
    },
    {
      "bufferView": 4,
      "byteOffset": 1521408,
      "componentType": 5126,
      "count": 1468,
      "max": [
        1.0,
        0.0,
        0.0,
        0.0
      ],
      "min": [
        1.0,
        0.0,
        0.0,
        0.0
      ],
      "type": "VEC4"
    }
  ],
  "asset": {
    "extras": {
      "author": "Vertex Mercher (https://sketchfab.com/VertexMercher)",
      "license": "CC-BY-4.0 (http://creativecommons.org/licenses/by/4.0/)",
      "source": "https://sketchfab.com/3d-models/the-smile-rigged-6795ba0b406f4e61993fafebbb94ebd9",
      "title": "The smile ( Rigged)"
    },
    "generator": "Sketchfab-17.8.0",
    "version": "2.0"
  },
  "bufferViews": [
    {
      "buffer": 0,
      "byteLength": 772448,
      "byteStride": 8,
      "name": "shortBufferViews",
      "target": 34962
    },
    {
      "buffer": 0,
      "byteLength": 1976832,
      "byteOffset": 772448,
      "name": "floatBufferViews",
      "target": 34963
    },
    {
      "buffer": 0,
      "byteLength": 772448,
      "byteOffset": 2749280,
      "byteStride": 8,
      "name": "floatBufferViews",
      "target": 34962
    },
    {
      "buffer": 0,
      "byteLength": 2317344,
      "byteOffset": 3521728,
      "byteStride": 12,
      "name": "floatBufferViews",
      "target": 34962
    },
    {
      "buffer": 0,
      "byteLength": 1544896,
      "byteOffset": 5839072,
      "byteStride": 16,
      "name": "floatBufferViews",
      "target": 34962
    },
    {
      "buffer": 0,
      "byteLength": 1344,
      "byteOffset": 7383968,
      "name": "floatBufferViews"
    }
  ],
  "buffers": [
    {
      "byteLength": 7385312,
      "uri": "scene.bin"
    }
  ],
  "images": [
    {
      "uri": "textures/Material.002_baseColor.png"
    },
    {
      "uri": "textures/Material.003_baseColor.png"
    }
  ],
  "materials": [
    {
      "doubleSided": true,
      "name": "Material.002",
      "pbrMetallicRoughness": {
        "baseColorTexture": {
          "index": 0
        },
        "metallicFactor": 0.0,
        "roughnessFactor": 0.8239417257461427
      }
    },
    {
      "doubleSided": true,
      "name": "Material.003",
      "pbrMetallicRoughness": {
        "baseColorTexture": {
          "index": 1
        },
        "metallicFactor": 0.0,
        "roughnessFactor": 0.8239417257461427
      }
    }
  ],
  "meshes": [
    {
      "name": "Cube_Material.002_0",
      "primitives": [
        {
          "attributes": {
            "JOINTS_0": 13,
            "NORMAL": 1,
            "POSITION": 0,
            "TEXCOORD_0": 2,
            "WEIGHTS_0": 14
          },
          "indices": 3,
          "material": 0,
          "mode": 4
        }
      ]
    },
    {
      "name": "Cube_Material.002_0",
      "primitives": [
        {
          "attributes": {
            "JOINTS_0": 15,
            "NORMAL": 5,
            "POSITION": 4,
            "TEXCOORD_0": 6,
            "WEIGHTS_0": 16
          },
          "indices": 7,
          "material": 0,
          "mode": 4
        }
      ]
    },
    {
      "name": "Cube_Material.003_0",
      "primitives": [
        {
          "attributes": {
            "JOINTS_0": 17,
            "NORMAL": 9,
            "POSITION": 8,
            "TEXCOORD_0": 10,
            "WEIGHTS_0": 18
          },
          "indices": 11,
          "material": 1,
          "mode": 4
        }
      ]
    }
  ],
  "nodes": [
    {
      "children": [
        1
      ],
      "matrix": [
        1.0,
        0.0,
        0.0,
        0.0,
        0.0,
        2.220446049250313e-16,
        -1.0,
        0.0,
        0.0,
        1.0,
        2.220446049250313e-16,
        0.0,
        0.0,
        0.0,
        0.0,
        1.0
      ],
      "name": "Sketchfab_model"
    },
    {
      "children": [
        2
      ],
      "matrix": [
        0.009999999776482582,
        0.0,
        0.0,
        0.0,
        0.0,
        0.0,
        0.009999999776482582,
        0.0,
        0.0,
        -0.009999999776482582,
        0.0,
        0.0,
        0.0,
        0.0,
        0.0,
        1.0
      ],
      "name": "Smiley.fbx"
    },
    {
      "children": [
        3,
        30,
        33
      ],
      "name": "RootNode"
    },
    {
      "children": [
        4
      ],
      "matrix": [
        100.0,
        0.0,
        0.0,
        0.0,
        0.0,
        -1.629206793918314e-05,
        -99.99999999999868,
        0.0,
        0.0,
        99.99999999999868,
        -1.629206793918314e-05,
        0.0,
        9.839252471923828,
        1109.0594482421875,
        -490.7632751464844,
        1.0
      ],
      "name": "Armature"
    },
    {
      "children": [
        5,
        27,
        28,
        29,
        26
      ],
      "name": "Object_4"
    },
    {
      "children": [
        6,
        8
      ],
      "name": "_rootJoint"
    },
    {
      "children": [
        7
      ],
      "name": "Bone_00",
      "rotation": [
        0.18389998376369476,
        -0.0012326657306402922,
        0.006590020377188921,
        0.9829221963882446
      ],
      "scale": [
        1.0,
        0.9999999403953552,
        0.9999999403953552
      ],
      "translation": [
        -0.25056830048561096,
        -3.299515962600708,
        -0.39092159271240234
      ]
    },
    {
      "name": "Bone_end_017",
      "rotation": [
        -5.551115123125783e-17,
        -0.0,
        0.0,
        1.0
      ],
      "translation": [
        2.7755575615628914e-17,
        2.1380763053894043,
        1.7763568394002505e-15
      ]
    },
    {
      "children": [
        9,
        13,
        17
      ],
      "name": "Bone.001_01",
      "rotation": [
        1.9583231392061862e-07,
        -0.1394832581281662,
        0.9902245402336121,
        -4.8658247209232286e-08
      ],
      "scale": [
        1.0,
        0.9999999403953552,
        0.9999996423721313
      ],
      "translation": [
        -0.25056830048561096,
        -3.299515962600708,
        -0.39092159271240234
      ]
    },
    {
      "children": [
        10
      ],
      "name": "Bone.002_02",
      "rotation": [
        -0.03139303997159004,
        -0.22530965507030487,
        0.6702503561973572,
        0.7064095735549927
      ],
      "scale": [
        1.0000001192092896,
        0.9999999403953552,
        1.0
      ],
      "translation": [
        1.0942330375129927e-11,
        1.750291109085083,
        2.1634358304822854e-08
      ]
    },
    {
      "children": [
        11
      ],
      "name": "Bone.003_03",
      "rotation": [
        -0.3173711895942688,
        -0.6318825483322144,
        0.3173711895942688,
        0.6318826079368591
      ],
      "scale": [
        0.9999999403953552,
        0.9999999403953552,
        1.0
      ],
      "translation": [
        3.418381879782828e-07,
        3.5225000381469727,
        2.370916085681074e-08
      ]
    },
    {
      "children": [
        12
      ],
      "name": "Bone.004_04",
      "rotation": [
        0.0019127198029309511,
        0.0002610436931718141,
        0.13517573475837708,
        0.9908197522163391
      ],
      "scale": [
        1.0,
        1.0,
        1.0000001192092896
      ],
      "translation": [
        4.5499808720705914e-07,
        5.528700351715088,
        -5.63438106837566e-07
      ]
    },
    {
      "name": "Bone.004_end_019",
      "rotation": [
        -4.336808689942018e-19,
        -2.466285297211678e-43,
        5.686866711302065e-25,
        1.0
      ],
      "translation": [
        0.0,
        10.919919967651367,
        -6.938893903907228e-18
      ]
    },
    {
      "children": [
        14
      ],
      "name": "Bone.005_05",
      "rotation": [
        -0.0723884105682373,
        0.26387619972229004,
        -0.6560254693031311,
        0.7033916711807251
      ],
      "translation": [
        1.0942330375129927e-11,
        1.750291109085083,
        2.1634358304822854e-08
      ]
    },
    {
      "children": [
        15
      ],
      "name": "Bone.006_06",
      "rotation": [
        -0.2807038128376007,
        0.6490034461021423,
        -0.2807038128376007,
        0.649003267288208
      ],
      "scale": [
        0.9999999403953552,
        0.9999999403953552,
        1.0
      ],
      "translation": [
        -5.601908128483046e-07,
        4.964444160461426,
        1.1463987448223634e-07
      ]
    },
    {
      "children": [
        16
      ],
      "name": "Bone.007_07",
      "rotation": [
        2.3586787634144457e-08,
        -3.528381498085764e-08,
        -0.1467624455690384,
        0.9891718626022339
      ],
      "translation": [
        -5.465946060212445e-07,
        4.967179298400879,
        -1.1856996025016997e-06
      ]
    },
    {
      "name": "Bone.007_end_016",
      "rotation": [
        2.7283281100404188e-42,
        -6.617444900424222e-24,
        4.1236620821690607e-19,
        1.0
      ],
      "translation": [
        0.0,
        9.169410705566406,
        -1.3877787807814457e-17
      ]
    },
    {
      "children": [
        18,
        22
      ],
      "name": "Bone.008_08",
      "rotation": [
        -1.1643688679896513e-07,
        0.798823893070221,
        -0.6015649437904358,
        -1.5605797898388118e-07
      ],
      "scale": [
        1.0,
        0.9999997615814209,
        1.0
      ],
      "translation": [
        1.0942330375129927e-11,
        1.750291109085083,
        2.1634358304822854e-08
      ]
    },
    {
      "children": [
        19
      ],
      "name": "Bone.009_09",
      "rotation": [
        -0.04883430525660515,
        -0.012392579577863216,
        0.2456592619419098,
        0.9680460691452026
      ],
      "scale": [
        1.0,
        1.0000001192092896,
        0.9999999403953552
      ],
      "translation": [
        1.50512597940633e-08,
        4.060059547424316,
        -3.26971338893145e-10
      ]
    },
    {
      "children": [
        20
      ],
      "name": "Bone.010_010",
      "rotation": [
        0.035702724009752274,
        0.016730189323425293,
        -0.23422619700431824,
        0.9713823795318604
      ],
      "scale": [
        0.9999999403953552,
        0.9999999403953552,
        1.0
      ],
      "translation": [
        -9.035596804096713e-08,
        4.530811309814453,
        -5.513429641723633e-07
      ]
    },
    {
      "children": [
        21
      ],
      "name": "Bone.011_011",
      "rotation": [
        0.009467651136219501,
        -0.0010848169913515449,
        -0.018978657200932503,
        0.9997744560241699
      ],
      "scale": [
        1.0,
        1.0000001192092896,
        1.0
      ],
      "translation": [
        3.818422555923462e-07,
        7.825203895568848,
        6.933696568012238e-07
      ]
    },
    {
      "name": "Bone.011_end_018",
      "rotation": [
        1.734723475976807e-18,
        2.710505431213761e-20,
        -9.236894289808145e-19,
        1.0
      ],
      "translation": [
        -4.440892098500626e-16,
        12.091915130615234,
        0.0
      ]
    },
    {
      "children": [
        23
      ],
      "name": "Bone.012_012",
      "rotation": [
        -0.09409020841121674,
        0.016587477177381516,
        -0.17282310128211975,
        0.9803081750869751
      ],
      "scale": [
        0.9999999403953552,
        0.9999999403953552,
        1.0
      ],
      "translation": [
        1.50512597940633e-08,
        4.060059547424316,
        -3.26971338893145e-10
      ]
    },
    {
      "children": [
        24
      ],
      "name": "Bone.013_013",
      "rotation": [
        0.09409023076295853,
        -0.016587471589446068,
        0.17282307147979736,
        0.9803081750869751
      ],
      "scale": [
        0.9999999403953552,
        0.9999998807907104,
        0.9999999403953552
      ],
      "translation": [
        1.6749254427850246e-08,
        5.291479587554932,
        -1.4156103134155273e-07
      ]
    },
    {
      "children": [
        25
      ],
      "name": "Bone.014_014",
      "rotation": [
        -0.005797640886157751,
        1.2283662442769128e-07,
        2.1902073044088866e-08,
        0.9999831914901733
      ],
      "translation": [
        1.534219506993395e-08,
        6.936698913574219,
        -5.220122147875372e-07
      ]
    },
    {
      "name": "Bone.014_end_015",
      "rotation": [
        8.673617379884035e-19,
        -1.3234889800848443e-23,
        1.2407709188295415e-24,
        1.0
      ],
      "translation": [
        -2.220446049250313e-16,
        12.24910831451416,
        -2.220446049250313e-16
      ]
    },
    {
      "matrix": [
        100.0000033096016,
        3.512217551255442e-08,
        -9.082951486858587e-08,
        0.0,
        -9.082951166759012e-08,
        -3.1825214726211034e-06,
        -100.00000101604638,
        0.0,
        -3.5122175621649896e-08,
        99.99999538989523,
        -3.1825212935357353e-06,
        0.0,
        -10.365866681180627,
        261.8956399762286,
        -388.00899968162156,
        1.0
      ],
      "name": "Object_26"
    },
    {
      "mesh": 0,
      "name": "Object_27",
      "skin": 0
    },
    {
      "mesh": 1,
      "name": "Object_28",
      "skin": 0
    },
    {
      "mesh": 2,
      "name": "Object_29",
      "skin": 0
    },
    {
      "children": [
        31
      ],
      "matrix": [
        -29.08647719990347,
        -5.518906457566863,
        -95.51711910171437,
        0.0,
        56.63930913109449,
        79.46723428563203,
        -21.83912397841966,
        0.0,
        77.11008775993375,
        -60.45246356562044,
        -19.98834696773717,
        0.0,
        407.6245422363281,
        590.38623046875,
        -100.54539489746094,
        1.0
      ],
      "name": "Lamp"
    },
    {
      "children": [
        32
      ],
      "matrix": [
        1.0,
        0.0,
        0.0,
        0.0,
        0.0,
        2.220446049250313e-16,
        1.0,
        0.0,
        0.0,
        -1.0,
        2.220446049250313e-16,
        0.0,
        0.0,
        0.0,
        0.0,
        1.0
      ],
      "name": "Object_31"
    },
    {
      "name": "Object_32"
    },
    {
      "children": [
        34
      ],
      "matrix": [
        -65.15583280329096,
        -44.52713576570858,
        -61.41703047373549,
        0.0,
        -32.40134137821245,
        89.53957451233616,
        -30.542088974418615,
        0.0,
        68.59205472129975,
        -1.0718647115348782e-05,
        -72.7676336239627,
        0.0,
        748.1131591796875,
        534.3665161132813,
        650.7639770507813,
        1.0
      ],
      "name": "Camera"
    },
    {
      "name": "Object_34"
    }
  ],
  "samplers": [
    {
      "magFilter": 9729,
      "minFilter": 9987,
      "wrapS": 10497,
      "wrapT": 10497
    }
  ],
  "scene": 0,
  "scenes": [
    {
      "name": "Sketchfab_Scene",
      "nodes": [
        0
      ]
    }
  ],
  "skins": [
    {
      "inverseBindMatrices": 12,
      "joints": [
        5,
        6,
        7,
        8,
        9,
        10,
        11,
        12,
        13,
        14,
        15,
        16,
        17,
        18,
        19,
        20,
        21,
        22,
        23,
        24,
        25
      ],
      "skeleton": 5
    }
  ],
  "textures": [
    {
      "sampler": 0,
      "source": 0
    },
    {
      "sampler": 0,
      "source": 1
    }
  ]
}
