{
  "accessors": [
    {
      "bufferView": 2,
      "componentType": 5126,
      "count": 5577,
      "max": [
        3.5041420459747314,
        3.3647620677948,
        4.914278030395508
      ],
      "min": [
        -2.4616808891296387,
        -3.5334270000457764,
        -9.999999974752427e-07
      ],
      "type": "VEC3"
    },
    {
      "bufferView": 2,
      "byteOffset": 66924,
      "componentType": 5126,
      "count": 5577,
      "max": [
        0.9980727434158325,
        0.9998027682304382,
        0.9999579191207886
      ],
      "min": [
        -0.999765932559967,
        -0.9992021322250366,
        -0.9960137605667114
      ],
      "type": "VEC3"
    },
    {
      "bufferView": 3,
      "componentType": 5126,
      "count": 5577,
      "max": [
        0.9989455342292786,
        0.9995426535606384,
        0.999255359172821,
        1.0
      ],
      "min": [
        -0.9996438026428223,
        -0.9993661642074585,
        -0.9998819828033447,
        -1.0
      ],
      "type": "VEC4"
    },
    {
      "bufferView": 1,
      "componentType": 5126,
      "count": 5577,
      "max": [
        0.9996950030326843,
        0.9898679852485657
      ],
      "min": [
        0.0002899999963119626,
        0.00029799999902024865
      ],
      "type": "VEC2"
    },
    {
      "bufferView": 0,
      "componentType": 5125,
      "count": 28929,
      "type": "SCALAR"
    },
    {
      "bufferView": 2,
      "byteOffset": 133848,
      "componentType": 5126,
      "count": 36,
      "max": [
        3.654642105102539,
        3.959306001663208,
        5.227496147155762
      ],
      "min": [
        -3.5140790939331055,
        -3.959306001663208,
        -0.03999999910593033
      ],
      "type": "VEC3"
    },
    {
      "bufferView": 2,
      "byteOffset": 134280,
      "componentType": 5126,
      "count": 36,
      "max": [
        1.0,
        1.0,
        1.0
      ],
      "min": [
        -1.0,
        -1.0,
        -1.0
      ],
      "type": "VEC3"
    },
    {
      "bufferView": 1,
      "byteOffset": 44616,
      "componentType": 5126,
      "count": 36,
      "max": [
        1.0,
        1.0
      ],
      "min": [
        0.0,
        0.0
      ],
      "type": "VEC2"
    },
    {
      "bufferView": 0,
      "byteOffset": 115716,
      "componentType": 5125,
      "count": 60,
      "type": "SCALAR"
    }
  ],
  "asset": {
    "extras": {
      "author": "CameronProteau (https://sketchfab.com/CameronProteau)",
      "license": "CC-BY-4.0 (http://creativecommons.org/licenses/by/4.0/)",
      "source": "https://sketchfab.com/3d-models/the-flesh-47fb5fb4ea0640819e5a2b1a5696a120",
      "title": "The Flesh"
    },
    "generator": "Sketchfab-15.1.0",
    "version": "2.0"
  },
  "bufferViews": [
    {
      "buffer": 0,
      "byteLength": 115956,
      "name": "floatBufferViews",
      "target": 34963
    },
    {
      "buffer": 0,
      "byteLength": 44904,
      "byteOffset": 115956,
      "byteStride": 8,
      "name": "floatBufferViews",
      "target": 34962
    },
    {
      "buffer": 0,
      "byteLength": 134712,
      "byteOffset": 160860,
      "byteStride": 12,
      "name": "floatBufferViews",
      "target": 34962
    },
    {
      "buffer": 0,
      "byteLength": 89232,
      "byteOffset": 295572,
      "byteStride": 16,
      "name": "floatBufferViews",
      "target": 34962
    }
  ],
  "buffers": [
    {
      "byteLength": 384804,
      "uri": "scene.bin"
    }
  ],
  "images": [
    {
      "uri": "textures/Flesh_Low_baseColor.png"
    },
    {
      "uri": "textures/Flesh_Low_metallicRoughness.png"
    },
    {
      "uri": "textures/Flesh_Low_normal.png"
    }
  ],
  "materials": [
    {
      "doubleSided": true,
      "name": "Flesh_Low",
      "normalTexture": {
        "index": 2
      },
      "pbrMetallicRoughness": {
        "baseColorTexture": {
          "index": 0
        },
        "metallicFactor": 0.0,
        "metallicRoughnessTexture": {
          "index": 1
        }
      }
    },
    {
      "doubleSided": true,
      "name": "Material.001",
      "pbrMetallicRoughness": {
        "baseColorFactor": [
          1.0,
          0.09001585088471749,
          0.09001585088471749,
          1.0
        ],
        "metallicFactor": 0.0
      }
    }
  ],
  "meshes": [
    {
      "name": "Object_0",
      "primitives": [
        {
          "attributes": {
            "NORMAL": 1,
            "POSITION": 0,
            "TANGENT": 2,
            "TEXCOORD_0": 3
          },
          "indices": 4,
          "material": 0,
          "mode": 4
        }
      ]
    },
    {
      "name": "Object_1",
      "primitives": [
        {
          "attributes": {
            "NORMAL": 6,
            "POSITION": 5,
            "TEXCOORD_0": 7
          },
          "indices": 8,
          "material": 1,
          "mode": 4
        }
      ]
    }
  ],
  "nodes": [
    {
      "children": [
        1
      ],
      "matrix": [
        1.0,
        0.0,
        0.0,
        0.0,
        0.0,
        2.220446049250313e-16,
        -1.0,
        0.0,
        0.0,
        1.0,
        2.220446049250313e-16,
        0.0,
        0.0,
        0.0,
        0.0,
        1.0
      ],
      "name": "Sketchfab_model"
    },
    {
      "children": [
        2,
        3
      ],
      "name": "FleshFinal.obj.cleaner.materialmerger.gles"
    },
    {
      "mesh": 0,
      "name": "Object_2"
    },
    {
      "mesh": 1,
      "name": "Object_3"
    }
  ],
  "samplers": [
    {
      "magFilter": 9729,
      "minFilter": 9987,
      "wrapS": 10497,
      "wrapT": 10497
    }
  ],
  "scene": 0,
  "scenes": [
    {
      "name": "Sketchfab_Scene",
      "nodes": [
        0
      ]
    }
  ],
  "textures": [
    {
      "sampler": 0,
      "source": 0
    },
    {
      "sampler": 0,
      "source": 1
    },
    {
      "sampler": 0,
      "source": 2
    }
  ]
}
