{
  "accessors": [
    {
      "bufferView": 2,
      "componentType": 5126,
      "count": 37957,
      "max": [
        0.5727159976959229,
        1.0,
        0.33216899633407593
      ],
      "min": [
        -0.5727159976959229,
        -1.0,
        -0.33216899633407593
      ],
      "type": "VEC3"
    },
    {
      "bufferView": 2,
      "byteOffset": 455484,
      "componentType": 5126,
      "count": 37957,
      "max": [
        0.9999663233757019,
        0.9999337196350098,
        0.9999392032623291
      ],
      "min": [
        -0.999914288520813,
        -0.9997784495353699,
        -0.9999938011169434
      ],
      "type": "VEC3"
    },
    {
      "bufferView": 3,
      "componentType": 5126,
      "count": 37957,
      "max": [
        0.9999720454216003,
        0.9999727010726929,
        0.999936580657959,
        1.0
      ],
      "min": [
        -0.9999334812164307,
        -0.9999915957450867,
        -0.9999662041664124,
        -1.0
      ],
      "type": "VEC4"
    },
    {
      "bufferView": 1,
      "componentType": 5126,
      "count": 37957,
      "max": [
        0.99951171875,
        0.99951171875
      ],
      "min": [
        0.00043702125549316406,
        0.0004379749298095703
      ],
      "type": "VEC2"
    },
    {
      "bufferView": 1,
      "byteOffset": 303656,
      "componentType": 5126,
      "count": 37957,
      "max": [
        0.99951171875,
        0.99951171875
      ],
      "min": [
        0.00043702125549316406,
        0.0004379749298095703
      ],
      "type": "VEC2"
    },
    {
      "bufferView": 1,
      "byteOffset": 607312,
      "componentType": 5126,
      "count": 37957,
      "max": [
        0.99951171875,
        0.99951171875
      ],
      "min": [
        0.00043702125549316406,
        0.0004379749298095703
      ],
      "type": "VEC2"
    },
    {
      "bufferView": 1,
      "byteOffset": 910968,
      "componentType": 5126,
      "count": 37957,
      "max": [
        0.99951171875,
        0.99951171875
      ],
      "min": [
        0.00043702125549316406,
        0.0004379749298095703
      ],
      "type": "VEC2"
    },
    {
      "bufferView": 0,
      "componentType": 5125,
      "count": 119772,
      "type": "SCALAR"
    }
  ],
  "asset": {
    "extras": {
      "author": "PurplePoint (https://sketchfab.com/tyajik)",
      "license": "CC-BY-4.0 (http://creativecommons.org/licenses/by/4.0/)",
      "source": "https://sketchfab.com/3d-models/crimson-eyehand-abomination-c27de05f75094cd681525a048613ba78",
      "title": "Crimson Eyehand Abomination"
    },
    "generator": "Sketchfab-16.72.0",
    "version": "2.0"
  },
  "bufferViews": [
    {
      "buffer": 0,
      "byteLength": 479088,
      "name": "floatBufferViews",
      "target": 34963
    },
    {
      "buffer": 0,
      "byteLength": 1214624,
      "byteOffset": 479088,
      "byteStride": 8,
      "name": "floatBufferViews",
      "target": 34962
    },
    {
      "buffer": 0,
      "byteLength": 910968,
      "byteOffset": 1693712,
      "byteStride": 12,
      "name": "floatBufferViews",
      "target": 34962
    },
    {
      "buffer": 0,
      "byteLength": 607312,
      "byteOffset": 2604680,
      "byteStride": 16,
      "name": "floatBufferViews",
      "target": 34962
    }
  ],
  "buffers": [
    {
      "byteLength": 3211992,
      "uri": "scene.bin"
    }
  ],
  "extensionsUsed": [
    "KHR_materials_specular"
  ],
  "images": [
    {
      "uri": "textures/material_0_baseColor.jpeg"
    },
    {
      "uri": "textures/material_0_metallicRoughness.png"
    },
    {
      "uri": "textures/material_0_normal.jpeg"
    }
  ],
  "materials": [
    {
      "doubleSided": true,
      "extensions": {
        "KHR_materials_specular": {
          "specularColorFactor": [
            1.0,
            1.0,
            1.0
          ],
          "specularFactor": 0.12647657592861233
        }
      },
      "name": "material_0",
      "normalTexture": {
        "index": 2
      },
      "pbrMetallicRoughness": {
        "baseColorTexture": {
          "index": 0
        },
        "metallicRoughnessTexture": {
          "index": 1
        }
      }
    }
  ],
  "meshes": [
    {
      "name": "Object_0",
      "primitives": [
        {
          "attributes": {
            "NORMAL": 1,
            "POSITION": 0,
            "TANGENT": 2,
            "TEXCOORD_0": 3,
            "TEXCOORD_1": 4,
            "TEXCOORD_2": 5,
            "TEXCOORD_3": 6
          },
          "indices": 7,
          "material": 0,
          "mode": 4
        }
      ]
    }
  ],
  "nodes": [
    {
      "children": [
        1
      ],
      "matrix": [
        1.0,
        0.0,
        0.0,
        0.0,
        0.0,
        2.220446049250313e-16,
        -1.0,
        0.0,
        0.0,
        1.0,
        2.220446049250313e-16,
        0.0,
        0.0,
        0.0,
        0.0,
        1.0
      ],
      "name": "Sketchfab_model"
    },
    {
      "children": [
        2
      ],
      "name": "root"
    },
    {
      "children": [
        3
      ],
      "matrix": [
        1.0,
        0.0,
        0.0,
        0.0,
        0.0,
        2.220446049250313e-16,
        1.0,
        0.0,
        0.0,
        -1.0,
        2.220446049250313e-16,
        0.0,
        0.0,
        0.0,
        0.0,
        1.0
      ],
      "name": "GLTF_SceneRootNode"
    },
    {
      "children": [
        4
      ],
      "name": "_0"
    },
    {
      "mesh": 0,
      "name": "Object_4"
    }
  ],
  "samplers": [
    {
      "magFilter": 9729,
      "minFilter": 9987,
      "wrapS": 10497,
      "wrapT": 10497
    }
  ],
  "scene": 0,
  "scenes": [
    {
      "name": "Sketchfab_Scene",
      "nodes": [
        0
      ]
    }
  ],
  "textures": [
    {
      "sampler": 0,
      "source": 0
    },
    {
      "sampler": 0,
      "source": 1
    },
    {
      "sampler": 0,
      "source": 2
    }
  ]
}
