{
  "accessors": [
    {
      "bufferView": 2,
      "componentType": 5126,
      "count": 65532,
      "max": [
        0.47326499223709106,
        0.9955599904060364,
        0.42323699593544006
      ],
      "min": [
        -0.49115899205207825,
        -0.9971879720687866,
        -0.429627001285553
      ],
      "type": "VEC3"
    },
    {
      "bufferView": 2,
      "byteOffset": 786384,
      "componentType": 5126,
      "count": 65532,
      "max": [
        0.999996542930603,
        0.9999915361404419,
        0.9999985694885254
      ],
      "min": [
        -0.9999629259109497,
        -1.0,
        -0.9999855756759644
      ],
      "type": "VEC3"
    },
    {
      "bufferView": 3,
      "componentType": 5126,
      "count": 65532,
      "max": [
        0.9999752640724182,
        0.9998680949211121,
        0.999997079372406,
        1.0
      ],
      "min": [
        -0.9999769330024719,
        -0.9999922513961792,
        -0.9999585747718811,
        -1.0
      ],
      "type": "VEC4"
    },
    {
      "bufferView": 1,
      "componentType": 5126,
      "count": 65532,
      "max": [
        0.9959909915924072,
        1.0
      ],
      "min": [
        -0.0,
        0.0
      ],
      "type": "VEC2"
    },
    {
      "bufferView": 1,
      "byteOffset": 524256,
      "componentType": 5126,
      "count": 65532,
      "max": [
        0.9959909915924072,
        1.0
      ],
      "min": [
        -0.0,
        0.0
      ],
      "type": "VEC2"
    },
    {
      "bufferView": 1,
      "byteOffset": 1048512,
      "componentType": 5126,
      "count": 65532,
      "max": [
        0.9959909915924072,
        1.0
      ],
      "min": [
        -0.0,
        0.0
      ],
      "type": "VEC2"
    },
    {
      "bufferView": 1,
      "byteOffset": 1572768,
      "componentType": 5126,
      "count": 65532,
      "max": [
        0.9959909915924072,
        1.0
      ],
      "min": [
        -0.0,
        0.0
      ],
      "type": "VEC2"
    },
    {
      "bufferView": 0,
      "componentType": 5125,
      "count": 233223,
      "type": "SCALAR"
    },
    {
      "bufferView": 2,
      "byteOffset": 1572768,
      "componentType": 5126,
      "count": 21662,
      "max": [
        0.49066200852394104,
        0.9377269744873047,
        0.08595900237560272
      ],
      "min": [
        -0.4991700053215027,
        -0.9923830032348633,
        -0.43098899722099304
      ],
      "type": "VEC3"
    },
    {
      "bufferView": 2,
      "byteOffset": 1832712,
      "componentType": 5126,
      "count": 21662,
      "max": [
        0.9999449253082275,
        0.9997498989105225,
        0.999954104423523
      ],
      "min": [
        -0.9999253749847412,
        -0.9999397993087769,
        -0.9999812841415405
      ],
      "type": "VEC3"
    },
    {
      "bufferView": 3,
      "byteOffset": 1048512,
      "componentType": 5126,
      "count": 21662,
      "max": [
        0.999971866607666,
        0.9999585747718811,
        0.9999849200248718,
        1.0
      ],
      "min": [
        -0.99996417760849,
        -0.9999827146530151,
        -0.9999698400497437,
        -1.0
      ],
      "type": "VEC4"
    },
    {
      "bufferView": 1,
      "byteOffset": 2097024,
      "componentType": 5126,
      "count": 21662,
      "max": [
        0.9960079789161682,
        1.0
      ],
      "min": [
        -0.0,
        0.0003529787063598633
      ],
      "type": "VEC2"
    },
    {
      "bufferView": 1,
      "byteOffset": 2270320,
      "componentType": 5126,
      "count": 21662,
      "max": [
        0.9960079789161682,
        1.0
      ],
      "min": [
        -0.0,
        0.0003529787063598633
      ],
      "type": "VEC2"
    },
    {
      "bufferView": 1,
      "byteOffset": 2443616,
      "componentType": 5126,
      "count": 21662,
      "max": [
        0.9960079789161682,
        1.0
      ],
      "min": [
        -0.0,
        0.0003529787063598633
      ],
      "type": "VEC2"
    },
    {
      "bufferView": 1,
      "byteOffset": 2616912,
      "componentType": 5126,
      "count": 21662,
      "max": [
        0.9960079789161682,
        1.0
      ],
      "min": [
        -0.0,
        0.0003529787063598633
      ],
      "type": "VEC2"
    },
    {
      "bufferView": 0,
      "byteOffset": 932892,
      "componentType": 5125,
      "count": 54135,
      "type": "SCALAR"
    }
  ],
  "asset": {
    "extras": {
      "author": "PurplePoint (https://sketchfab.com/Purple_Point)",
      "license": "CC-BY-4.0 (http://creativecommons.org/licenses/by/4.0/)",
      "source": "https://sketchfab.com/3d-models/horror-humanoid-creature-b5874b20f8c34b919a52eb3cb7dad94c",
      "title": "Horror Humanoid Creature"
    },
    "generator": "Sketchfab-16.99.0",
    "version": "2.0"
  },
  "bufferViews": [
    {
      "buffer": 0,
      "byteLength": 1149432,
      "name": "floatBufferViews",
      "target": 34963
    },
    {
      "buffer": 0,
      "byteLength": 2790208,
      "byteOffset": 1149432,
      "byteStride": 8,
      "name": "floatBufferViews",
      "target": 34962
    },
    {
      "buffer": 0,
      "byteLength": 2092656,
      "byteOffset": 3939640,
      "byteStride": 12,
      "name": "floatBufferViews",
      "target": 34962
    },
    {
      "buffer": 0,
      "byteLength": 1395104,
      "byteOffset": 6032296,
      "byteStride": 16,
      "name": "floatBufferViews",
      "target": 34962
    }
  ],
  "buffers": [
    {
      "byteLength": 7427400,
      "uri": "scene.bin"
    }
  ],
  "extensionsUsed": [
    "KHR_materials_specular"
  ],
  "images": [
    {
      "uri": "textures/material_0_baseColor.jpeg"
    },
    {
      "uri": "textures/material_0_metallicRoughness.png"
    },
    {
      "uri": "textures/material_0_normal.jpeg"
    }
  ],
  "materials": [
    {
      "doubleSided": true,
      "extensions": {
        "KHR_materials_specular": {
          "specularColorFactor": [
            1.0,
            1.0,
            1.0
          ],
          "specularFactor": 0.5043824895466348
        }
      },
      "name": "material_0",
      "normalTexture": {
        "index": 2,
        "texCoord": 2
      },
      "pbrMetallicRoughness": {
        "baseColorFactor": [
          0.6262876229718033,
          0.6262876229718033,
          0.6262876229718033,
          1.0
        ],
        "baseColorTexture": {
          "index": 0
        },
        "metallicRoughnessTexture": {
          "index": 1,
          "texCoord": 1
        }
      }
    }
  ],
  "meshes": [
    {
      "name": "Object_0",
      "primitives": [
        {
          "attributes": {
            "NORMAL": 1,
            "POSITION": 0,
            "TANGENT": 2,
            "TEXCOORD_0": 3,
            "TEXCOORD_1": 4,
            "TEXCOORD_2": 5,
            "TEXCOORD_3": 6
          },
          "indices": 7,
          "material": 0,
          "mode": 4
        }
      ]
    },
    {
      "name": "Object_1",
      "primitives": [
        {
          "attributes": {
            "NORMAL": 9,
            "POSITION": 8,
            "TANGENT": 10,
            "TEXCOORD_0": 11,
            "TEXCOORD_1": 12,
            "TEXCOORD_2": 13,
            "TEXCOORD_3": 14
          },
          "indices": 15,
          "material": 0,
          "mode": 4
        }
      ]
    }
  ],
  "nodes": [
    {
      "children": [
        1
      ],
      "matrix": [
        1.0,
        0.0,
        0.0,
        0.0,
        0.0,
        2.220446049250313e-16,
        -1.0,
        0.0,
        0.0,
        1.0,
        2.220446049250313e-16,
        0.0,
        0.0,
        0.0,
        0.0,
        1.0
      ],
      "name": "Sketchfab_model"
    },
    {
      "children": [
        2
      ],
      "name": "root"
    },
    {
      "children": [
        3
      ],
      "matrix": [
        1.0,
        0.0,
        0.0,
        0.0,
        0.0,
        2.220446049250313e-16,
        1.0,
        0.0,
        0.0,
        -1.0,
        2.220446049250313e-16,
        0.0,
        0.0,
        0.0,
        0.0,
        1.0
      ],
      "name": "GLTF_SceneRootNode"
    },
    {
      "children": [
        4,
        5
      ],
      "name": "_0"
    },
    {
      "mesh": 0,
      "name": "Object_4"
    },
    {
      "mesh": 1,
      "name": "Object_5"
    }
  ],
  "samplers": [
    {
      "magFilter": 9729,
      "minFilter": 9987,
      "wrapS": 10497,
      "wrapT": 10497
    }
  ],
  "scene": 0,
  "scenes": [
    {
      "name": "Sketchfab_Scene",
      "nodes": [
        0
      ]
    }
  ],
  "textures": [
    {
      "sampler": 0,
      "source": 0
    },
    {
      "sampler": 0,
      "source": 1
    },
    {
      "sampler": 0,
      "source": 2
    }
  ]
}
